<?xml version="1.0" encoding="utf-8"?>
<!-- Generator: Adobe Illustrator 25.0.0, SVG Export Plug-In . SVG Version: 6.00 Build 0)  -->
<svg version="1.1" id="Layer_1" xmlns="http://www.w3.org/2000/svg" xmlns:xlink="http://www.w3.org/1999/xlink" x="0px" y="0px"
	 width="1475.1px" height="3792.7px" viewBox="0 0 1475.1 3792.7" style="enable-background:new 0 0 1475.1 3792.7;"
	 xml:space="preserve">
<style type="text/css">
	.st0{fill:#F9EAC7;}
	.st1{fill:#FFFFFF;}
	.st2{fill:#E8E8E8;}
	.st3{fill:#FF9999;}
	.st4{fill:#FFFEFD;}
</style>
<g id="Layer_3">
	<path class="st0" d="M1281.1,116.6H65.9C29.5,116.6,0,146.1,0,182.5l0,0v1492.3c0,36.4,29.5,65.9,65.9,65.9h1215.2
		c36.4,0,65.9-29.5,65.9-65.9V182.5C1347,146.1,1317.5,116.6,1281.1,116.6L1281.1,116.6z M60.4,1659.6c-12.2,0-22-9.8-22-22
		s9.8-22,22-22s22,9.8,22,22S72.6,1659.6,60.4,1659.6L60.4,1659.6z M60.4,1565.3c-12.2,0-22-9.8-22-22s9.8-22,22-22s22,9.8,22,22
		S72.6,1565.3,60.4,1565.3L60.4,1565.3z M60.4,1471c-12.2,0-22-9.8-22-22s9.8-22,22-22s22,9.8,22,22l0,0
		C82.4,1461.1,72.6,1470.9,60.4,1471L60.4,1471z M60.4,1376.6c-12.2,0-22-9.8-22-22s9.8-22,22-22s22,9.8,22,22
		C82.4,1366.8,72.6,1376.6,60.4,1376.6L60.4,1376.6z M60.4,1282.3c-12.2,0-22-9.8-22-22s9.8-22,22-22s22,9.8,22,22
		C82.4,1272.4,72.6,1282.3,60.4,1282.3L60.4,1282.3z M60.4,1187.9c-12.2,0-22-9.8-22-22s9.8-22,22-22s22,9.8,22,22
		S72.6,1187.9,60.4,1187.9L60.4,1187.9z M60.4,1093.6c-12.2,0-22-9.8-22-22s9.8-22,22-22s22,9.8,22,22l0,0
		C82.4,1083.7,72.6,1093.6,60.4,1093.6L60.4,1093.6z M60.4,999.2c-12.2,0-22-9.8-22-22s9.8-22,22-22s22,9.8,22,22
		S72.6,999.2,60.4,999.2L60.4,999.2z M60.4,904.9c-12.2,0-22-9.8-22-22s9.8-22,22-22s22,9.8,22,22l0,0
		C82.4,895.1,72.6,904.9,60.4,904.9L60.4,904.9z M60.4,810.6c-12.2,0-22-9.8-22-22s9.8-22,22-22s22,9.8,22,22l0,0
		C82.4,800.7,72.5,810.5,60.4,810.6L60.4,810.6z M60.4,716.2c-12.2,0-22-9.8-22-22s9.8-22,22-22s22,9.8,22,22S72.6,716.2,60.4,716.2
		L60.4,716.2z M60.4,621.9c-12.2,0-22-9.8-22-22s9.8-22,22-22s22,9.8,22,22l0,0C82.4,612,72.6,621.9,60.4,621.9L60.4,621.9z
		 M60.4,527.5c-12.2,0-22-9.8-22-22s9.8-22,22-22s22,9.8,22,22l0,0C82.4,517.7,72.5,527.5,60.4,527.5L60.4,527.5z M60.4,433.2
		c-12.2,0-22-9.8-22-22s9.8-22,22-22s22,9.8,22,22C82.4,423.3,72.6,433.2,60.4,433.2L60.4,433.2z M60.4,338.8c-12.2,0-22-9.8-22-22
		s9.8-22,22-22s22,9.8,22,22S72.6,338.8,60.4,338.8L60.4,338.8z M60.4,244.5c-12.2,0-22-9.8-22-22s9.8-22,22-22s22,9.8,22,22
		S72.6,244.5,60.4,244.5L60.4,244.5L60.4,244.5z"/>
	<path class="st1" d="M1293.7,102.5H78.6c-36.4,0-65.9,29.5-65.9,65.9v1492.3c0,36.4,29.5,65.9,65.9,65.9l0,0h1215.2
		c36.4,0,65.9-29.5,65.9-65.9l0,0V168.4C1359.7,132,1330.1,102.5,1293.7,102.5L1293.7,102.5z M73.1,1645.5c-12.2,0-22-9.8-22-22
		s9.8-22,22-22s22,9.8,22,22l0,0C95.1,1635.7,85.2,1645.5,73.1,1645.5z M73.1,1551.2c-12.2,0-22-9.8-22-22s9.8-22,22-22
		s22,9.8,22,22l0,0C95.1,1541.3,85.2,1551.2,73.1,1551.2z M73.1,1456.8c-12.2,0-22-9.8-22-22s9.8-22,22-22s22,9.8,22,22l0,0
		C95,1447,85.2,1456.8,73.1,1456.8L73.1,1456.8z M73.1,1362.5c-12.2,0-22-9.8-22-22s9.8-22,22-22s22,9.8,22,22l0,0
		C95.1,1352.6,85.2,1362.5,73.1,1362.5L73.1,1362.5L73.1,1362.5z M73.1,1268.1c-12.2,0-22-9.8-22-22s9.8-22,22-22s22,9.8,22,22
		C95,1258.3,85.2,1268.1,73.1,1268.1L73.1,1268.1z M73.1,1173.8c-12.2,0-22-9.8-22-22s9.8-22,22-22s22,9.8,22,22l0,0
		C95,1164,85.2,1173.8,73.1,1173.8L73.1,1173.8z M73.1,1079.5c-12.2,0-22-9.8-22-22s9.8-22,22-22s22,9.8,22,22
		C95.1,1069.6,85.3,1079.5,73.1,1079.5L73.1,1079.5L73.1,1079.5z M73.1,985.1c-12.2,0-22-9.8-22-22s9.8-22,22-22s22,9.8,22,22l0,0
		C95,975.3,85.2,985.1,73.1,985.1L73.1,985.1z M73.1,890.8c-12.2,0-22-9.8-22-22s9.8-22,22-22s22,9.8,22,22
		C95,880.9,85.2,890.8,73.1,890.8L73.1,890.8z M73.1,796.4c-12.2,0-22-9.8-22-22s9.8-22,22-22s22,9.8,22,22
		C95,786.6,85.2,796.4,73.1,796.4L73.1,796.4z M73.1,702.1c-12.2,0-22-9.8-22-22s9.8-22,22-22s22,9.8,22,22l0,0
		C95,692.2,85.2,702.1,73.1,702.1L73.1,702.1z M73.1,607.8c-12.2,0-22-9.8-22-22s9.8-22,22-22s22,9.8,22,22l0,0
		C95,597.9,85.2,607.8,73.1,607.8L73.1,607.8z M73.1,513.4c-12.2,0-22-9.8-22-22s9.8-22,22-22s22,9.8,22,22
		C95,503.6,85.2,513.4,73.1,513.4L73.1,513.4z M73.1,419.1c-12.2,0-22-9.8-22-22s9.8-22,22-22s22,9.8,22,22
		C95,409.2,85.2,419.1,73.1,419.1L73.1,419.1z M73.1,324.7c-12.2,0-22-9.8-22-22s9.8-22,22-22s22,9.8,22,22
		C95,314.9,85.2,324.7,73.1,324.7L73.1,324.7z M73.1,230.4c-12.2,0-22-9.8-22-22s9.8-22,22-22s22,9.8,22,22
		C95,220.5,85.2,230.4,73.1,230.4L73.1,230.4z"/>
</g>
<g id="Layer_3_1_">
	<path class="st0" d="M1281.1,1579.4H65.9c-36.4,0-65.9,29.5-65.9,65.9l0,0v1492.3c0,36.4,29.5,65.9,65.9,65.9h1215.2
		c36.4,0,65.9-29.5,65.9-65.9V1645.4C1347,1609,1317.5,1579.4,1281.1,1579.4L1281.1,1579.4z M60.4,3122.5c-12.2,0-22-9.8-22-22
		s9.8-22,22-22s22,9.8,22,22C82.4,3112.6,72.6,3122.5,60.4,3122.5L60.4,3122.5z M60.4,3028.2c-12.2,0-22-9.8-22-22s9.8-22,22-22
		s22,9.8,22,22C82.4,3018.3,72.6,3028.2,60.4,3028.2L60.4,3028.2z M60.4,2933.8c-12.2,0-22-9.8-22-22s9.8-22,22-22s22,9.8,22,22l0,0
		C82.4,2924,72.6,2933.8,60.4,2933.8L60.4,2933.8z M60.4,2839.5c-12.2,0-22-9.8-22-22s9.8-22,22-22s22,9.8,22,22
		C82.4,2829.6,72.6,2839.5,60.4,2839.5L60.4,2839.5z M60.4,2745.1c-12.2,0-22-9.8-22-22s9.8-22,22-22s22,9.8,22,22
		S72.6,2745.1,60.4,2745.1L60.4,2745.1z M60.4,2650.8c-12.2,0-22-9.8-22-22s9.8-22,22-22s22,9.8,22,22
		C82.4,2640.9,72.6,2650.8,60.4,2650.8L60.4,2650.8z M60.4,2556.4c-12.2,0-22-9.8-22-22s9.8-22,22-22s22,9.8,22,22l0,0
		C82.4,2546.6,72.6,2556.4,60.4,2556.4L60.4,2556.4z M60.4,2462.1c-12.2,0-22-9.8-22-22s9.8-22,22-22s22,9.8,22,22
		C82.4,2452.2,72.6,2462.1,60.4,2462.1L60.4,2462.1z M60.4,2367.8c-12.2,0-22-9.8-22-22s9.8-22,22-22s22,9.8,22,22l0,0
		C82.4,2357.9,72.6,2367.8,60.4,2367.8L60.4,2367.8z M60.4,2273.4c-12.2,0-22-9.8-22-22s9.8-22,22-22s22,9.8,22,22l0,0
		C82.4,2263.5,72.5,2273.4,60.4,2273.4L60.4,2273.4z M60.4,2179.1c-12.2,0-22-9.8-22-22s9.8-22,22-22s22,9.8,22,22
		C82.4,2169.2,72.6,2179.1,60.4,2179.1L60.4,2179.1z M60.4,2084.7c-12.2,0-22-9.8-22-22s9.8-22,22-22s22,9.8,22,22l0,0
		C82.4,2074.9,72.6,2084.7,60.4,2084.7L60.4,2084.7z M60.4,1990.4c-12.2,0-22-9.8-22-22s9.8-22,22-22s22,9.8,22,22l0,0
		C82.4,1980.5,72.5,1990.4,60.4,1990.4L60.4,1990.4z M60.4,1896c-12.2,0-22-9.8-22-22s9.8-22,22-22s22,9.8,22,22
		S72.6,1896,60.4,1896L60.4,1896z M60.4,1801.7c-12.2,0-22-9.8-22-22s9.8-22,22-22s22,9.8,22,22
		C82.4,1791.8,72.6,1801.7,60.4,1801.7L60.4,1801.7z M60.4,1707.4c-12.2,0-22-9.8-22-22s9.8-22,22-22s22,9.8,22,22
		C82.4,1697.5,72.6,1707.4,60.4,1707.4L60.4,1707.4L60.4,1707.4z"/>
	<path class="st1" d="M1293.7,1565.3H78.6c-36.4,0-65.9-30.3-65.9,65.9v1492.3c0,36.4,29.5,65.9,65.9,65.9l0,0h1215.2
		c36.4,0,65.9-29.5,65.9-65.9l0,0V1631.2C1359.7,1594.8,1330.1,1565.3,1293.7,1565.3L1293.7,1565.3z M73.1,3108.4
		c-12.2,0-22-9.8-22-22s9.8-22,22-22s22,9.8,22,22l0,0C95.1,3098.5,85.2,3108.4,73.1,3108.4z M73.1,3014c-12.2,0-22-9.8-22-22
		s9.8-22,22-22s22,9.8,22,22l0,0C95.1,3004.2,85.2,3014,73.1,3014z M73.1,2919.7c-12.2,0-22-9.8-22-22s9.8-22,22-22s22,9.8,22,22
		l0,0C95,2909.8,85.2,2919.7,73.1,2919.7L73.1,2919.7z M73.1,2825.3c-12.2,0-22-9.8-22-22s9.8-22,22-22s22,9.8,22,22l0,0
		C95.1,2815.5,85.2,2825.3,73.1,2825.3C73.1,2825.4,73.1,2825.4,73.1,2825.3L73.1,2825.3z M73.1,2731c-12.2,0-22-9.8-22-22
		s9.8-22,22-22s22,9.8,22,22C95,2721.1,85.2,2731,73.1,2731L73.1,2731z M73.1,2636.7c-12.2,0-22-9.8-22-22s9.8-22,22-22
		s22,9.8,22,22l0,0C95,2626.8,85.2,2636.7,73.1,2636.7L73.1,2636.7z M73.1,2542.3c-12.2,0-22-9.8-22-22s9.8-22,22-22s22,9.8,22,22
		S85.3,2542.3,73.1,2542.3C73.1,2542.4,73.1,2542.4,73.1,2542.3L73.1,2542.3z M73.1,2448c-12.2,0-22-9.8-22-22s9.8-22,22-22
		s22,9.8,22,22l0,0C95,2438.1,85.2,2448,73.1,2448L73.1,2448z M73.1,2353.6c-12.2,0-22-9.8-22-22s9.8-22,22-22s22,9.8,22,22
		C95,2343.8,85.2,2353.6,73.1,2353.6L73.1,2353.6z M73.1,2259.3c-12.2,0-22-9.8-22-22s9.8-22,22-22s22,9.8,22,22
		C95,2249.4,85.2,2259.3,73.1,2259.3L73.1,2259.3z M73.1,2164.9c-12.2,0-22-9.8-22-22s9.8-22,22-22s22,9.8,22,22l0,0
		C95,2155.1,85.2,2164.9,73.1,2164.9L73.1,2164.9z M73.1,2070.6c-12.2,0-22-9.8-22-22s9.8-22,22-22s22,9.8,22,22l0,0
		C95,2060.8,85.2,2070.6,73.1,2070.6L73.1,2070.6z M73.1,1976.3c-12.2,0-22-9.8-22-22s9.8-22,22-22s22,9.8,22,22
		C95,1966.4,85.2,1976.2,73.1,1976.3L73.1,1976.3z M73.1,1881.9c-12.2,0-22-9.8-22-22s9.8-22,22-22s22,9.8,22,22
		C95,1872.1,85.2,1881.9,73.1,1881.9L73.1,1881.9z M73.1,1787.6c-12.2,0-22-9.8-22-22s9.8-22,22-22s22,9.8,22,22
		C95,1777.7,85.2,1787.6,73.1,1787.6L73.1,1787.6z M73.1,1693.2c-12.2,0-22-9.8-22-22s9.8-22,22-22s22,9.8,22,22
		C95,1683.4,85.2,1693.2,73.1,1693.2L73.1,1693.2z"/>
</g>
<g id="Layer_3_2_">
	<path class="st0" d="M1281.1,2095H65.9c-36.4,0-65.9,29.5-65.9,65.9l0,0v1492.3c0,36.4,29.5,65.9,65.9,65.9h1215.2
		c36.4,0,65.9-29.5,65.9-65.9V2160.9C1347,2124.5,1317.5,2095,1281.1,2095L1281.1,2095z M60.4,3638c-12.2,0-22-9.8-22-22
		s9.8-22,22-22s22,9.8,22,22S72.6,3638,60.4,3638L60.4,3638z M60.4,3543.7c-12.2,0-22-9.8-22-22s9.8-22,22-22s22,9.8,22,22
		C82.4,3533.8,72.6,3543.7,60.4,3543.7L60.4,3543.7z M60.4,3449.3c-12.2,0-22-9.8-22-22s9.8-22,22-22s22,9.8,22,22l0,0
		C82.4,3439.5,72.6,3449.3,60.4,3449.3L60.4,3449.3z M60.4,3355c-12.2,0-22-9.8-22-22s9.8-22,22-22s22,9.8,22,22
		C82.4,3345.1,72.6,3355,60.4,3355L60.4,3355z M60.4,3260.6c-12.2,0-22-9.8-22-22s9.8-22,22-22s22,9.8,22,22
		S72.6,3260.6,60.4,3260.6L60.4,3260.6z M60.4,3166.3c-12.2,0-22-9.8-22-22s9.8-22,22-22s22,9.8,22,22
		C82.4,3156.4,72.6,3166.3,60.4,3166.3L60.4,3166.3z M60.4,3072c-12.2,0-22-9.8-22-22s9.8-22,22-22s22,9.8,22,22l0,0
		C82.4,3062.1,72.6,3072,60.4,3072L60.4,3072z M60.4,2977.6c-12.2,0-22-9.8-22-22s9.8-22,22-22s22,9.8,22,22
		S72.6,2977.6,60.4,2977.6L60.4,2977.6z M60.4,2883.3c-12.2,0-22-9.8-22-22s9.8-22,22-22s22,9.8,22,22l0,0
		C82.4,2873.4,72.6,2883.3,60.4,2883.3L60.4,2883.3z M60.4,2788.9c-12.2,0-22-9.8-22-22s9.8-22,22-22s22,9.8,22,22l0,0
		C82.4,2779.1,72.5,2788.9,60.4,2788.9L60.4,2788.9z M60.4,2694.6c-12.2,0-22-9.8-22-22s9.8-22,22-22s22,9.8,22,22
		C82.4,2684.7,72.6,2694.6,60.4,2694.6L60.4,2694.6z M60.4,2600.2c-12.2,0-22-9.8-22-22s9.8-22,22-22s22,9.8,22,22l0,0
		C82.4,2590.4,72.6,2600.2,60.4,2600.2L60.4,2600.2z M60.4,2505.9c-12.2,0-22-9.8-22-22s9.8-22,22-22s22,9.8,22,22l0,0
		C82.4,2496,72.5,2505.9,60.4,2505.9L60.4,2505.9z M60.4,2411.6c-12.2,0-22-9.8-22-22s9.8-22,22-22s22,9.8,22,22
		C82.4,2401.7,72.6,2411.6,60.4,2411.6L60.4,2411.6z M60.4,2317.2c-12.2,0-22-9.8-22-22s9.8-22,22-22s22,9.8,22,22
		S72.6,2317.2,60.4,2317.2L60.4,2317.2z M60.4,2222.9c-12.2,0-22-9.8-22-22s9.8-22,22-22s22,9.8,22,22
		C82.4,2213,72.6,2222.9,60.4,2222.9L60.4,2222.9L60.4,2222.9z"/>
	<path class="st1" d="M1293.7,2080.8H78.6c-36.4,0-65.9-30.3-65.9,65.9V3639c0,36.4,29.5,65.9,65.9,65.9l0,0h1215.2
		c36.4,0,65.9-29.5,65.9-65.9l0,0V2146.7C1359.7,2110.3,1330.1,2080.8,1293.7,2080.8L1293.7,2080.8z M73.1,3623.9
		c-12.2,0-22-9.8-22-22s9.8-22,22-22s22,9.8,22,22l0,0C95.1,3614,85.2,3623.9,73.1,3623.9z M73.1,3529.5c-12.2,0-22-9.8-22-22
		s9.8-22,22-22s22,9.8,22,22l0,0C95.1,3519.7,85.2,3529.5,73.1,3529.5z M73.1,3435.2c-12.2,0-22-9.8-22-22s9.8-22,22-22
		s22,9.8,22,22l0,0C95,3425.4,85.2,3435.2,73.1,3435.2L73.1,3435.2z M73.1,3340.9c-12.2,0-22-9.8-22-22s9.8-22,22-22s22,9.8,22,22
		l0,0C95.1,3331,85.2,3340.9,73.1,3340.9L73.1,3340.9L73.1,3340.9z M73.1,3246.5c-12.2,0-22-9.8-22-22s9.8-22,22-22s22,9.8,22,22
		C95,3236.7,85.2,3246.5,73.1,3246.5L73.1,3246.5z M73.1,3152.2c-12.2,0-22-9.8-22-22s9.8-22,22-22s22,9.8,22,22l0,0
		C95,3142.3,85.2,3152.2,73.1,3152.2L73.1,3152.2z M73.1,3057.8c-12.2,0-22-9.8-22-22s9.8-22,22-22s22,9.8,22,22
		S85.3,3057.9,73.1,3057.8C73.1,3057.9,73.1,3057.9,73.1,3057.8L73.1,3057.8z M73.1,2963.5c-12.2,0-22-9.8-22-22s9.8-22,22-22
		s22,9.8,22,22l0,0C95,2953.6,85.2,2963.5,73.1,2963.5L73.1,2963.5z M73.1,2869.1c-12.2,0-22-9.8-22-22s9.8-22,22-22s22,9.8,22,22
		C95,2859.3,85.2,2869.1,73.1,2869.1L73.1,2869.1z M73.1,2774.8c-12.2,0-22-9.8-22-22s9.8-22,22-22s22,9.8,22,22
		C95,2765,85.2,2774.8,73.1,2774.8L73.1,2774.8z M73.1,2680.5c-12.2,0-22-9.8-22-22s9.8-22,22-22s22,9.8,22,22l0,0
		C95,2670.6,85.2,2680.5,73.1,2680.5L73.1,2680.5z M73.1,2586.1c-12.2,0-22-9.8-22-22s9.8-22,22-22s22,9.8,22,22l0,0
		C95,2576.3,85.2,2586.1,73.1,2586.1L73.1,2586.1z M73.1,2491.8c-12.2,0-22-9.8-22-22s9.8-22,22-22s22,9.8,22,22
		C95,2481.9,85.2,2491.8,73.1,2491.8L73.1,2491.8z M73.1,2397.4c-12.2,0-22-9.8-22-22s9.8-22,22-22s22,9.8,22,22
		C95,2387.6,85.2,2397.4,73.1,2397.4L73.1,2397.4z M73.1,2303.1c-12.2,0-22-9.8-22-22s9.8-22,22-22s22,9.8,22,22
		C95,2293.2,85.2,2303.1,73.1,2303.1L73.1,2303.1z M73.1,2208.8c-12.2,0-22-9.8-22-22s9.8-22,22-22s22,9.8,22,22
		C95,2198.9,85.2,2208.8,73.1,2208.8L73.1,2208.8z"/>
</g>
<g id="Layer_5">
	<g>
		<path class="st2" d="M1262.9,289.8c-1.7,0-3.4-0.6-4.7-1.8c-75.8-66.6-95.5-125.4-98.6-163.2c-1.5-11.5-0.9-23.2,1.7-34.5
			c0.5-2.6,1.2-5.3,2.1-7.8c12.1-38.9,45.9-66,82.3-66c7.2,0,14.4,1.1,21.4,3.2c19.3,5.9,36.7,20.1,47.9,38.8
			c5.2,8.6,8.8,18,10.7,27.9c11.7-13,30.6-27.4,57-27.4c8.5,0.1,16.9,1.5,24.9,4.1c20.6,6.7,37.2,21.9,46.6,42.8
			c9.3,20.6,10.6,44.6,3.6,67.5c-0.7,2.6-1.6,5.1-2.7,7.6c-4.2,10.8-10.3,20.8-18,29.5c-23.8,29.4-73.3,67-173.4,79.2
			C1263.5,289.8,1263.2,289.8,1262.9,289.8z"/>
		<path class="st2" d="M1245.7,23.6c6.5,0,13,1,19.3,2.9c38.2,11.8,61.4,55.5,52.9,83.1l0,0c0,0,21.6-43.6,64.9-43.6
			c7.7,0.1,15.4,1.3,22.7,3.8c38.6,12.6,59.2,57.4,45.6,101.6c-0.6,2.4-1.5,4.7-2.4,6.9c-3.9,10.1-9.6,19.4-16.8,27.5
			c-22.6,28-70.5,64.7-168.9,76.8c-74.5-65.4-93.3-122.7-96.3-158.6c-1.4-10.8-0.8-21.7,1.6-32.2c0.5-2.4,1.1-4.7,1.9-7.1
			C1181.5,47.9,1213,23.6,1245.7,23.6 M1245.7,9.5L1245.7,9.5c-19.2,0-38.6,7.1-54.6,19.9c-16.3,13.2-28.3,30.9-34.4,51
			c-0.9,2.8-1.7,5.6-2.3,8.5c-2.8,12-3.4,24.5-1.8,36.7c3.3,39,23.5,99.7,101,167.7c2.6,2.3,5.9,3.5,9.3,3.5c0.6,0,1.2,0,1.7-0.1
			c102.3-12.6,153.2-51.3,177.9-81.7c8.2-9.3,14.7-19.9,19.2-31.4c1.1-2.7,2.1-5.5,2.9-8.3c7.5-24.5,6.1-50.2-3.9-72.4
			c-10.2-22.7-28.3-39.2-50.9-46.6c-8.7-2.9-17.9-4.4-27.1-4.5c-19.3,0-37.6,7.2-53.3,20.9c-2.1-6.2-4.9-12.2-8.3-17.9
			c-12.1-20.2-31-35.4-51.9-41.9C1261.6,10.6,1253.7,9.5,1245.7,9.5L1245.7,9.5z"/>
	</g>
	<path class="st3" d="M1268.6,280.3c-1.7,0-3.4-0.6-4.7-1.8c-75.8-66.6-95.5-125.4-98.6-163.2c-1.5-11.5-0.9-23.2,1.7-34.5
		c0.5-2.6,1.2-5.3,2.1-7.8c12.1-38.9,45.9-66,82.3-66c7.2,0,14.4,1.1,21.4,3.2c19.2,5.9,36.7,20.1,47.9,38.8
		c5.2,8.6,8.8,18,10.7,27.9c11.7-13,30.6-27.4,57-27.4c8.5,0.1,16.9,1.5,24.9,4.1c20.7,6.7,37.2,21.9,46.6,42.8
		c9.3,20.6,10.6,44.6,3.6,67.5c-0.7,2.6-1.6,5.1-2.7,7.6c-4.2,10.8-10.3,20.8-18,29.5c-23.8,29.4-73.3,67-173.4,79.2
		C1269.1,280.3,1268.8,280.3,1268.6,280.3z"/>
	<path class="st4" d="M1251.4,14.2c6.5,0,13,1,19.3,2.9c38.2,11.8,61.3,55.5,52.9,83.1l0,0c0,0,21.6-43.6,64.9-43.6
		c7.7,0.1,15.4,1.3,22.7,3.8c38.6,12.6,59.2,57.4,45.6,101.6c-0.6,2.4-1.4,4.7-2.4,6.9c-3.9,10.1-9.6,19.4-16.8,27.5
		c-22.6,28-70.5,64.7-168.9,76.8c-74.5-65.4-93.3-122.7-96.3-158.6c-1.4-10.7-0.8-21.7,1.6-32.2c0.5-2.4,1.1-4.7,1.9-7.1
		C1187.2,38.5,1218.7,14.2,1251.4,14.2 M1251.4,0L1251.4,0c-19.2,0-38.6,7.1-54.6,19.9c-16.3,13.2-28.3,30.9-34.4,51
		c-0.9,2.8-1.7,5.6-2.3,8.5c-2.8,12-3.4,24.5-1.8,36.7c3.3,39,23.5,99.7,101,167.7c3,2.7,7.1,3.9,11.1,3.4
		c102.3-12.6,153.2-51.3,177.9-81.7c8.2-9.3,14.7-19.9,19.2-31.4c1.1-2.7,2.1-5.5,2.9-8.3c7.5-24.5,6.1-50.2-3.9-72.4
		c-10.3-22.7-28.3-39.2-50.9-46.6c-8.7-2.9-17.9-4.4-27.1-4.5c-19.3,0-37.6,7.2-53.3,20.9c-2.1-6.2-4.9-12.2-8.3-17.9
		c-12.1-20.2-31-35.4-51.9-41.9C1267.2,1.2,1259.3,0,1251.4,0L1251.4,0z"/>
</g>
</svg>
