<svg xmlns="http://www.w3.org/2000/svg" viewBox="0 0 1475.06 1740.69"><defs><style>.cls-1{isolation:isolate;}.cls-2{fill:#f9eac7;}.cls-2,.cls-4{mix-blend-mode:multiply;}.cls-3{fill:#fff;}.cls-5{fill:#e8e8e8;}.cls-6{fill:#f99;}.cls-7{fill:#fffefd;}</style></defs><g class="cls-1"><g id="Layer_3" data-name="Layer 3"><path class="cls-2" d="M1873.94,225.07H658.75a65.9,65.9,0,0,0-65.9,65.9V1783.28a65.91,65.91,0,0,0,65.9,65.9H1873.94a65.91,65.91,0,0,0,65.91-65.9V291A65.9,65.9,0,0,0,1873.94,225.07ZM653.25,1768.13a22,22,0,1,1,22-22A22,22,0,0,1,653.25,1768.13Zm0-94.34a22,22,0,1,1,22-22A22,22,0,0,1,653.25,1673.79Zm0-94.35a22,22,0,1,1,22-22A22,22,0,0,1,653.25,1579.44Zm0-94.34a22,22,0,1,1,22-22A22,22,0,0,1,653.25,1485.1Zm0-94.34a22,22,0,1,1,22-22A22,22,0,0,1,653.25,1390.76Zm0-94.35a22,22,0,1,1,22-22A22,22,0,0,1,653.25,1296.41Zm0-94.34a22,22,0,1,1,22-22A22,22,0,0,1,653.25,1202.07Zm0-94.34a22,22,0,1,1,22-22A22,22,0,0,1,653.25,1107.73Zm0-94.34a22,22,0,1,1,22-22A22,22,0,0,1,653.25,1013.39Zm0-94.35a22,22,0,1,1,22-22A22,22,0,0,1,653.25,919Zm0-94.34a22,22,0,1,1,22-22A22,22,0,0,1,653.25,824.7Zm0-94.34a22,22,0,1,1,22-22A22,22,0,0,1,653.25,730.36Zm0-94.34a22,22,0,1,1,22-22A22,22,0,0,1,653.25,636Zm0-94.35a22,22,0,1,1,22-22A22,22,0,0,1,653.25,541.67Zm0-94.34a22,22,0,1,1,22-22A22,22,0,0,1,653.25,447.33Zm0-94.34a22,22,0,1,1,22-22A22,22,0,0,1,653.25,353Z" transform="translate(-592.85 -108.49)"/><path class="cls-3" d="M1886.59,210.94H671.41a65.91,65.91,0,0,0-65.91,65.91v1492.3a65.91,65.91,0,0,0,65.91,65.91H1886.59a65.91,65.91,0,0,0,65.91-65.91V276.85A65.91,65.91,0,0,0,1886.59,210.94ZM665.9,1754a22,22,0,1,1,22-22A22,22,0,0,1,665.9,1754Zm0-94.34a22,22,0,1,1,22-22A22,22,0,0,1,665.9,1659.66Zm0-94.34a22,22,0,1,1,22-22A22,22,0,0,1,665.9,1565.32Zm0-94.34a22,22,0,1,1,22-22A22,22,0,0,1,665.9,1471Zm0-94.35a22,22,0,1,1,22-22A22,22,0,0,1,665.9,1376.63Zm0-94.34a22,22,0,1,1,22-22A22,22,0,0,1,665.9,1282.29Zm0-94.34a22,22,0,1,1,22-22A22,22,0,0,1,665.9,1188Zm0-94.34a22,22,0,1,1,22-22A22,22,0,0,1,665.9,1093.61Zm0-94.35a22,22,0,1,1,22-22A22,22,0,0,1,665.9,999.26Zm0-94.34a22,22,0,1,1,22-22A22,22,0,0,1,665.9,904.92Zm0-94.34a22,22,0,1,1,22-22A22,22,0,0,1,665.9,810.58Zm0-94.34a22,22,0,1,1,22-22A22,22,0,0,1,665.9,716.24Zm0-94.35a22,22,0,1,1,22-22A22,22,0,0,1,665.9,621.89Zm0-94.34a22,22,0,1,1,22-22A22,22,0,0,1,665.9,527.55Zm0-94.34a22,22,0,1,1,22-22A22,22,0,0,1,665.9,433.21Zm0-94.34a22,22,0,1,1,22-22A22,22,0,0,1,665.9,338.87Z" transform="translate(-592.85 -108.49)"/></g><g id="Layer_5" data-name="Layer 5"><g class="cls-4"><path class="cls-5" d="M1855.75,398.26a7.08,7.08,0,0,1-4.67-1.76c-75.81-66.56-95.49-125.43-98.63-163.16a98.55,98.55,0,0,1,1.71-34.47,60.91,60.91,0,0,1,2.09-7.81c12.07-38.87,45.9-66,82.33-66a72.56,72.56,0,0,1,21.36,3.21c19.26,5.94,36.73,20.07,47.93,38.76a82.81,82.81,0,0,1,10.67,27.89c11.68-13,30.62-27.43,57-27.43a80.5,80.5,0,0,1,24.91,4.14c20.64,6.73,37.2,21.92,46.62,42.78,9.32,20.64,10.59,44.6,3.57,67.48a61.33,61.33,0,0,1-2.67,7.63A98.89,98.89,0,0,1,2030,319c-23.85,29.4-73.28,67-173.4,79.25A8.46,8.46,0,0,1,1855.75,398.26Z" transform="translate(-592.85 -108.49)"/><path class="cls-5" d="M1838.59,132.13a65,65,0,0,1,19.26,2.91c38.19,11.78,61.36,55.52,52.86,83.12h0s21.6-43.59,64.88-43.59a73.1,73.1,0,0,1,22.71,3.79c38.59,12.57,59.19,57.45,45.57,101.6a52.56,52.56,0,0,1-2.42,6.89,91.86,91.86,0,0,1-16.84,27.52c-22.64,28-70.46,64.73-168.86,76.8-74.5-65.41-93.31-122.7-96.26-158.58a92.08,92.08,0,0,1,1.6-32.22,51,51,0,0,1,1.88-7.05c11.38-36.9,42.92-61.19,75.62-61.19m0-14.17h0c-19.19,0-38.6,7.05-54.64,19.85a104.53,104.53,0,0,0-34.43,51,68.81,68.81,0,0,0-2.28,8.54,105.56,105.56,0,0,0-1.84,36.72c3.29,39,23.52,99.71,101,167.73a14.15,14.15,0,0,0,9.35,3.53,14.35,14.35,0,0,0,1.73-.11c102.33-12.56,153.23-51.3,177.94-81.69a105.83,105.83,0,0,0,19.17-31.39,70.86,70.86,0,0,0,2.92-8.33c7.47-24.5,6.08-50.18-3.93-72.35-10.25-22.7-28.33-39.25-50.89-46.6a87.51,87.51,0,0,0-27.1-4.49c-19.29,0-37.58,7.2-53.3,20.9a93.94,93.94,0,0,0-8.34-17.91c-12.09-20.17-31-35.44-51.92-41.89a79.61,79.61,0,0,0-23.44-3.53Z" transform="translate(-592.85 -108.49)"/></g><path class="cls-6" d="M1861.41,388.79a7.11,7.11,0,0,1-4.68-1.76c-75.8-66.56-95.49-125.44-98.63-163.16a98.78,98.78,0,0,1,1.72-34.47,59.14,59.14,0,0,1,2.09-7.81c12.06-38.88,45.9-66,82.33-66a72.62,72.62,0,0,1,21.36,3.22c19.25,5.94,36.72,20.07,47.92,38.76a82.87,82.87,0,0,1,10.68,27.88c11.67-13,30.6-27.42,57-27.42a80.39,80.39,0,0,1,24.9,4.14c20.65,6.72,37.2,21.92,46.63,42.78,9.32,20.64,10.58,44.59,3.57,67.48a62.19,62.19,0,0,1-2.68,7.63,98.69,98.69,0,0,1-18,29.45c-23.84,29.4-73.27,67-173.4,79.25A8.43,8.43,0,0,1,1861.41,388.79Z" transform="translate(-592.85 -108.49)"/><path class="cls-7" d="M1844.24,122.66a65.37,65.37,0,0,1,19.27,2.9c38.19,11.78,61.35,55.53,52.86,83.13h0s21.59-43.6,64.88-43.6a73.13,73.13,0,0,1,22.71,3.8c38.59,12.57,59.18,57.45,45.56,101.6a50.71,50.71,0,0,1-2.42,6.89,91.83,91.83,0,0,1-16.83,27.52c-22.64,28-70.46,64.72-168.86,76.8-74.5-65.41-93.31-122.71-96.26-158.58a92.07,92.07,0,0,1,1.59-32.22,52.93,52.93,0,0,1,1.88-7.05c11.39-36.9,42.93-61.19,75.62-61.19m0-14.17h0c-19.19,0-38.59,7.05-54.64,19.85a104.47,104.47,0,0,0-34.42,51,70.27,70.27,0,0,0-2.29,8.53,105.83,105.83,0,0,0-1.84,36.72c3.29,39,23.53,99.72,101,167.74a14.27,14.27,0,0,0,11.07,3.42c102.34-12.56,153.24-51.3,177.95-81.7a105.76,105.76,0,0,0,19.16-31.38,69.56,69.56,0,0,0,2.92-8.33c7.48-24.5,6.09-50.18-3.92-72.35-10.26-22.7-28.33-39.25-50.89-46.6a87.56,87.56,0,0,0-27.1-4.49c-19.29,0-37.59,7.2-53.3,20.89a94.19,94.19,0,0,0-8.35-17.9c-12.09-20.17-31-35.44-51.91-41.89a79.62,79.62,0,0,0-23.45-3.53Z" transform="translate(-592.85 -108.49)"/></g></g></svg>